<svg id="Layer_1" data-name="Layer 1" xmlns="http://www.w3.org/2000/svg" viewBox="0 0 100 29.57"><defs><style>.cls-1{fill:#fff;}</style></defs><path class="cls-1" d="M1.38,14.84q0-4.61,2.44-7.14t7-2.53a13.71,13.71,0,0,1,3.47.41A14.24,14.24,0,0,1,17.5,6.91l-1.9,4.87a6.2,6.2,0,0,0-4.12-1.6,4.45,4.45,0,0,0-3.25,1.15,4.69,4.69,0,0,0-1.17,3.48,4.65,4.65,0,0,0,1.17,3.47,4.49,4.49,0,0,0,3.25,1.14,6.28,6.28,0,0,0,4.12-1.58l1.9,4.82A14.43,14.43,0,0,1,14.29,24a13.22,13.22,0,0,1-3.43.41c-3,0-5.4-.83-7-2.48S1.38,17.91,1.38,14.84Z"/><path class="cls-1" d="M30.46,21.56H24.25l-.7,2.6H18.17L23.85,5.41H31.1l5.66,18.75h-5.6ZM27.78,11.38c-.12-.44-.26-1.14-.42-2.09l-.16.83-.27,1.26-1.56,5.84h4Z"/><path class="cls-1" d="M54.51,12a6.27,6.27,0,0,1-1.79,4.78q-1.8,1.71-5.49,1.71h-3v5.65H38.74V5.44h8.49c2.46,0,4.29.56,5.49,1.7A6.42,6.42,0,0,1,54.51,12Zm-6-1.76a2.34,2.34,0,0,0-1.71-.54H44.23v4.61h2.52A2,2,0,0,0,49,12,2.39,2.39,0,0,0,48.46,10.26Z"/><path class="cls-1" d="M56.74,17.68V5.41H62.2V16.93a3,3,0,0,0,.68,2.14,2.83,2.83,0,0,0,2.13.72,2.89,2.89,0,0,0,2.14-.71,2.93,2.93,0,0,0,.7-2.15V5.41h5.49V17.68a6.09,6.09,0,0,1-2.08,5.06c-1.38,1.1-3.49,1.66-6.33,1.66s-4.85-.56-6.19-1.66A6.22,6.22,0,0,1,56.74,17.68Z"/><path class="cls-1" d="M91,10.28H85.9V24.16H80.41V10.28H75.24V5.41H91Z"/><path class="cls-1" d="M93.29,5.25h5.33V11.7l-.56,6.08H93.85l-.56-6.08Zm5.14,14v4.9h-5v-4.9Z"/></svg>